<svg width="47" height="47" viewBox="0 0 47 47" fill="none" xmlns="http://www.w3.org/2000/svg">
<path d="M23.5 0.583252C20.4905 0.583252 17.5106 1.17601 14.7302 2.32768C11.9498 3.47935 9.42349 5.16738 7.29548 7.29539C2.99777 11.5931 0.583344 17.422 0.583344 23.4999C0.583344 29.5778 2.99777 35.4067 7.29548 39.7044C9.42349 41.8325 11.9498 43.5205 14.7302 44.6722C17.5106 45.8238 20.4905 46.4166 23.5 46.4166C29.5779 46.4166 35.4068 44.0022 39.7045 39.7044C44.0022 35.4067 46.4167 29.5778 46.4167 23.4999C46.4167 20.4905 45.8239 17.5105 44.6722 14.7301C43.5206 11.9497 41.8325 9.4234 39.7045 7.29539C37.5765 5.16738 35.0502 3.47935 32.2698 2.32768C29.4895 1.17601 26.5095 0.583252 23.5 0.583252ZM33.125 33.1249L21.2083 25.7916V12.0416H24.6458V23.9583L34.9583 30.1457L33.125 33.1249Z" fill="white"/>
</svg>
