<svg width="55" height="55" viewBox="0 0 55 55" fill="none" xmlns="http://www.w3.org/2000/svg">
<path fill-rule="evenodd" clip-rule="evenodd" d="M32.6562 5.72917C32.6562 5.57722 32.5959 5.4315 32.4884 5.32405C32.381 5.21661 32.2353 5.15625 32.0833 5.15625H16.0416C14.3702 5.15625 12.7673 5.82022 11.5854 7.00209C10.4035 8.18396 9.73956 9.78692 9.73956 11.4583V43.5417C9.73956 45.2131 10.4035 46.816 11.5854 47.9979C12.7673 49.1798 14.3702 49.8438 16.0416 49.8438H38.9583C40.6297 49.8438 42.2327 49.1798 43.4146 47.9979C44.5964 46.816 45.2604 45.2131 45.2604 43.5417V20.9619C45.2604 20.8099 45.2 20.6642 45.0926 20.5568C44.9851 20.4493 44.8394 20.389 44.6875 20.389H34.375C33.9191 20.389 33.482 20.2079 33.1596 19.8855C32.8373 19.5632 32.6562 19.1261 32.6562 18.6702V5.72917ZM34.375 28.0729C34.8308 28.0729 35.268 28.254 35.5903 28.5763C35.9126 28.8987 36.0937 29.3358 36.0937 29.7917C36.0937 30.2475 35.9126 30.6847 35.5903 31.007C35.268 31.3293 34.8308 31.5104 34.375 31.5104H20.625C20.1691 31.5104 19.732 31.3293 19.4096 31.007C19.0873 30.6847 18.9062 30.2475 18.9062 29.7917C18.9062 29.3358 19.0873 28.8987 19.4096 28.5763C19.732 28.254 20.1691 28.0729 20.625 28.0729H34.375ZM34.375 37.2396C34.8308 37.2396 35.268 37.4207 35.5903 37.743C35.9126 38.0653 36.0937 38.5025 36.0937 38.9583C36.0937 39.4142 35.9126 39.8513 35.5903 40.1737C35.268 40.496 34.8308 40.6771 34.375 40.6771H20.625C20.1691 40.6771 19.732 40.496 19.4096 40.1737C19.0873 39.8513 18.9062 39.4142 18.9062 38.9583C18.9062 38.5025 19.0873 38.0653 19.4096 37.743C19.732 37.4207 20.1691 37.2396 20.625 37.2396H34.375Z" fill="white"/>
<path d="M36.0938 6.47159C36.0938 6.04992 36.536 5.7818 36.8638 6.04534C37.141 6.26992 37.3908 6.53117 37.604 6.82909L44.5088 16.4472C44.6646 16.6672 44.495 16.9514 44.2246 16.9514H36.6667C36.5147 16.9514 36.369 16.891 36.2616 16.7836C36.1541 16.6761 36.0938 16.5304 36.0938 16.3785V6.47159Z" fill="white"/>
</svg>
