<svg width="29" height="26" viewBox="0 0 29 26" fill="none" xmlns="http://www.w3.org/2000/svg">
<path d="M25.0167 3.98376C24.3901 3.35497 23.6455 2.85607 22.8257 2.51565C22.0059 2.17523 21.1269 2 20.2392 2C19.3515 2 18.4726 2.17523 17.6527 2.51565C16.8329 2.85607 16.0883 3.35497 15.4617 3.98376L14.5 4.95799L13.5383 3.98376C12.9117 3.35497 12.1671 2.85607 11.3473 2.51565C10.5274 2.17523 9.64848 2 8.76078 2C7.87309 2 6.99413 2.17523 6.1743 2.51565C5.35447 2.85607 4.60991 3.35497 3.98331 3.98376C1.3354 6.63166 1.17303 11.1031 4.50789 14.5004L14.5 24.4926L24.4921 14.5004C27.827 11.1031 27.6646 6.63166 25.0167 3.98376Z" stroke="white" stroke-width="3" stroke-linecap="round" stroke-linejoin="round"/>
</svg>
