<svg width="37" height="36" viewBox="0 0 37 36" fill="none" xmlns="http://www.w3.org/2000/svg">
<path d="M31.2797 35.5H6.07049C4.77215 35.5 3.52699 34.9842 2.60893 34.0662C1.69087 33.1481 1.17511 31.903 1.17511 30.6046V5.39538C1.17511 4.09704 1.69087 2.85188 2.60893 1.93382C3.52699 1.01576 4.77215 0.5 6.07049 0.5H31.2797C32.5781 0.5 33.8232 1.01576 34.7413 1.93382C35.6593 2.85188 36.1751 4.09704 36.1751 5.39538V30.6046C36.1751 31.903 35.6593 33.1481 34.7413 34.0662C33.8232 34.9842 32.5781 35.5 31.2797 35.5ZM6.07049 2.45815C5.29149 2.45815 4.54439 2.76761 3.99356 3.31845C3.44272 3.86928 3.13326 4.61638 3.13326 5.39538V30.6046C3.13326 31.3836 3.44272 32.1307 3.99356 32.6816C4.54439 33.2324 5.29149 33.5418 6.07049 33.5418H31.2797C32.0587 33.5418 32.8058 33.2324 33.3567 32.6816C33.9075 32.1307 34.217 31.3836 34.217 30.6046V5.39538C34.217 4.61638 33.9075 3.86928 33.3567 3.31845C32.8058 2.76761 32.0587 2.45815 31.2797 2.45815H6.07049Z" fill="#2E2E2E" stroke="#2E2E2E"/>
<path d="M18.1918 26.9864C16.3213 26.9845 14.4933 26.4557 12.939 25.467C11.3848 24.4783 10.1739 23.074 9.45959 21.4317C8.74527 19.7893 8.55952 17.9826 8.92585 16.24C9.29217 14.4974 10.1941 12.8971 11.5177 11.6414C12.8412 10.3856 14.5269 9.53089 16.3617 9.18515C18.1965 8.83942 20.0981 9.01823 21.8259 9.69898C23.5538 10.3797 25.0304 11.5319 26.0691 13.0097C27.1078 14.4876 27.662 16.2248 27.6616 18.0019C27.6583 20.3858 26.6592 22.671 24.8836 24.3556C23.108 26.0402 20.7012 26.9864 18.1918 26.9864ZM18.1918 10.9613C16.729 10.9632 15.2995 11.377 14.084 12.1503C12.8686 12.9236 11.9216 14.0217 11.3627 15.306C10.8038 16.5903 10.6581 18.0032 10.944 19.3661C11.2299 20.729 11.9346 21.9809 12.969 22.9636C14.0034 23.9463 15.3211 24.6157 16.7558 24.8873C18.1904 25.1589 19.6777 25.0205 21.0296 24.4895C22.3815 23.9586 23.5374 23.059 24.3514 21.9043C25.1654 20.7496 25.6009 19.3916 25.603 18.0019C25.603 16.1346 24.8221 14.3438 23.4323 13.0234C22.0424 11.7031 20.1574 10.9613 18.1918 10.9613Z" fill="#2E2E2E" stroke="#2E2E2E"/>
<path d="M28.6076 9.95956C29.6525 9.95956 30.4995 9.11254 30.4995 8.06767C30.4995 7.02281 29.6525 6.17578 28.6076 6.17578C27.5627 6.17578 26.7157 7.02281 26.7157 8.06767C26.7157 9.11254 27.5627 9.95956 28.6076 9.95956Z" fill="#2E2E2E" stroke="#2E2E2E"/>
</svg>
