<svg width="22" height="22" viewBox="0 0 22 22" fill="none" xmlns="http://www.w3.org/2000/svg">
<path d="M2.33334 9.9165C2.60946 9.91681 2.87505 10.0225 3.07583 10.2121C3.27661 10.4016 3.39743 10.6607 3.41361 10.9363C3.42979 11.212 3.34011 11.4834 3.16289 11.6952C2.98567 11.9069 2.73428 12.043 2.46009 12.0756L2.33334 12.0832H1.25001C0.973891 12.0829 0.708309 11.9771 0.507528 11.7876C0.306747 11.598 0.185922 11.339 0.169741 11.0633C0.153559 10.7877 0.243241 10.5163 0.420464 10.3045C0.597687 10.0928 0.849073 9.9567 1.12326 9.92409L1.25001 9.9165H2.33334ZM11 0.166504C11.2654 0.166539 11.5215 0.263956 11.7197 0.440279C11.918 0.616601 12.0447 0.859565 12.0758 1.12309L12.0833 1.24984V2.33317C12.083 2.60929 11.9773 2.87487 11.7878 3.07565C11.5982 3.27643 11.3391 3.39726 11.0635 3.41344C10.7879 3.42962 10.5164 3.33994 10.3047 3.16272C10.0929 2.98549 9.95687 2.73411 9.92426 2.45992L9.91668 2.33317V1.24984C9.91668 0.962519 10.0308 0.686969 10.234 0.483805C10.4371 0.28064 10.7127 0.166504 11 0.166504ZM20.75 9.9165C21.0261 9.91681 21.2917 10.0225 21.4925 10.2121C21.6933 10.4016 21.8141 10.6607 21.8303 10.9363C21.8465 11.212 21.7568 11.4834 21.5796 11.6952C21.4023 11.9069 21.1509 12.043 20.8768 12.0756L20.75 12.0832H19.6667C19.3906 12.0829 19.125 11.9771 18.9242 11.7876C18.7234 11.598 18.6026 11.339 18.5864 11.0633C18.5702 10.7877 18.6599 10.5163 18.8371 10.3045C19.0144 10.0928 19.2657 9.9567 19.5399 9.92409L19.6667 9.9165H20.75ZM3.30076 3.30059C3.4873 3.11406 3.73549 3.00201 3.99877 2.98546C4.26205 2.9689 4.52232 3.04898 4.73076 3.21067L4.83259 3.30059L5.59093 4.05892C5.78522 4.25387 5.89802 4.51547 5.90642 4.79059C5.91482 5.0657 5.81819 5.33369 5.63616 5.54014C5.45412 5.74658 5.20033 5.876 4.92633 5.9021C4.65233 5.9282 4.37867 5.84903 4.16093 5.68067L4.05909 5.59075L3.30076 4.83242C3.09767 4.62927 2.98357 4.35376 2.98357 4.0665C2.98357 3.77924 3.09767 3.50374 3.30076 3.30059ZM17.1674 3.30059C17.3624 3.10629 17.624 2.99349 17.8991 2.98509C18.1742 2.97669 18.4422 3.07332 18.6486 3.25536C18.8551 3.43739 18.9845 3.69118 19.0106 3.96518C19.0367 4.23918 18.9575 4.51285 18.7892 4.73059L18.6993 4.83242L17.9409 5.59075C17.746 5.78505 17.4844 5.89785 17.2093 5.90625C16.9341 5.91465 16.6662 5.81802 16.4597 5.63598C16.2533 5.45395 16.1238 5.20016 16.0977 4.92616C16.0716 4.65216 16.1508 4.37849 16.3192 4.16075L16.4091 4.05892L17.1674 3.30059ZM13.1667 17.4998C13.454 17.4998 13.7295 17.614 13.9327 17.8171C14.1359 18.0203 14.25 18.2959 14.25 18.5832C14.25 19.4451 13.9076 20.2718 13.2981 20.8813C12.6886 21.4908 11.862 21.8332 11 21.8332C10.1381 21.8332 9.31141 21.4908 8.70191 20.8813C8.09242 20.2718 7.75001 19.4451 7.75001 18.5832C7.75004 18.3178 7.84746 18.0617 8.02378 17.8634C8.20011 17.6651 8.44307 17.5385 8.70659 17.5074L8.83334 17.4998H13.1667ZM11 4.49984C12.3642 4.49984 13.6939 4.92908 14.8006 5.72676C15.9074 6.52445 16.735 7.65013 17.1665 8.94436C17.5979 10.2386 17.6111 11.6357 17.2043 12.9379C16.7976 14.2401 15.9914 15.3813 14.9 16.1998C14.7507 16.312 14.5749 16.3836 14.3898 16.4078L14.25 16.4165H7.75001C7.51561 16.4165 7.28753 16.3405 7.10001 16.1998C6.00862 15.3813 5.20244 14.2401 4.79567 12.9379C4.3889 11.6357 4.40216 10.2386 4.83357 8.94436C5.26498 7.65013 6.09267 6.52445 7.19939 5.72676C8.30612 4.92908 9.63577 4.49984 11 4.49984Z" fill="white"/>
</svg>
