<svg width="36" height="36" viewBox="0 0 36 36" fill="none" xmlns="http://www.w3.org/2000/svg">
<path d="M32.3619 0.5H2.98817C1.43505 0.5 0.175049 1.76 0.175049 3.31313V32.6869C0.175049 34.24 1.43505 35.5 2.98817 35.5H32.3619C33.9151 35.5 35.175 34.24 35.175 32.6869V3.31313C35.175 1.76 33.9151 0.5 32.3619 0.5ZM32.3619 32.7C12.7707 32.6956 2.97505 32.6912 2.97505 32.6869C2.97942 13.0956 2.9838 3.3 2.98817 3.3C22.5794 3.30437 32.375 3.30875 32.375 3.31313C32.3707 22.9044 32.3663 32.7 32.3619 32.7ZM5.3638 13.6206H10.5569V30.3244H5.3638V13.6206ZM7.96255 11.3369C9.62067 11.3369 10.9725 9.98937 10.9725 8.32687C10.9725 7.9316 10.8947 7.54019 10.7434 7.175C10.5922 6.80981 10.3704 6.47799 10.0909 6.19848C9.81144 5.91898 9.47962 5.69726 9.11443 5.546C8.74924 5.39473 8.35783 5.31687 7.96255 5.31687C7.56727 5.31687 7.17586 5.39473 6.81067 5.546C6.44548 5.69726 6.11366 5.91898 5.83416 6.19848C5.55465 6.47799 5.33294 6.80981 5.18167 7.175C5.0304 7.54019 4.95255 7.9316 4.95255 8.32687C4.94817 9.98937 6.29567 11.3369 7.96255 11.3369ZM19.0007 22.06C19.0007 19.8812 19.4163 17.7725 22.1157 17.7725C24.7757 17.7725 24.815 20.2619 24.815 22.2V30.3244H30.0038V21.1631C30.0038 16.6656 29.0325 13.205 23.7782 13.205C21.2538 13.205 19.5607 14.5919 18.865 15.9044H18.795V13.6206H13.8119V30.3244H19.0007V22.06Z" fill="#2E2E2E"/>
</svg>
