<svg width="55" height="55" viewBox="0 0 55 55" fill="none" xmlns="http://www.w3.org/2000/svg">
<path fill-rule="evenodd" clip-rule="evenodd" d="M32.7364 4.90874C32.091 4.15008 31.2885 3.54073 30.3843 3.12284C29.4802 2.70496 28.496 2.48853 27.5 2.48853C26.5039 2.48853 25.5198 2.70496 24.6156 3.12284C23.7115 3.54073 22.9089 4.15008 22.2635 4.90874L22.1673 5.02332C21.9318 5.29957 21.6341 5.51593 21.2986 5.65459C20.9631 5.79324 20.5995 5.85021 20.2377 5.82082L20.0887 5.80936C19.0963 5.72982 18.0984 5.8668 17.1641 6.2108C16.2298 6.55481 15.3813 7.09765 14.6774 7.80178C13.9735 8.50591 13.4309 9.35453 13.0872 10.289C12.7435 11.2234 12.6068 12.2213 12.6867 13.2137L12.6958 13.3627C12.7252 13.7245 12.6682 14.0881 12.5296 14.4236C12.3909 14.7591 12.1746 15.0568 11.8983 15.2923L11.7837 15.3885C11.0251 16.0339 10.4157 16.8365 9.99784 17.7406C9.57996 18.6448 9.36353 19.6289 9.36353 20.625C9.36353 21.621 9.57996 22.6052 9.99784 23.5093C10.4157 24.4135 11.0251 25.216 11.7837 25.8614L11.8983 25.9577C12.1746 26.1932 12.3909 26.4909 12.5296 26.8264C12.6682 27.1619 12.7252 27.5255 12.6958 27.8873L12.6844 28.0362C12.5479 29.7404 13.0508 31.4343 14.0951 32.7879C15.1394 34.1415 16.6503 35.0578 18.3333 35.3581V50.4167C18.3333 50.8315 18.4458 51.2387 18.659 51.5946C18.8722 51.9505 19.178 52.2419 19.5439 52.4376C19.9097 52.6333 20.3218 52.7261 20.7362 52.706C21.1506 52.6858 21.5517 52.5536 21.8969 52.3233L27.5 48.5879L33.1031 52.3233C33.4482 52.5536 33.8494 52.6858 34.2638 52.706C34.6782 52.7261 35.0903 52.6333 35.4561 52.4376C35.8219 52.2419 36.1278 51.9505 36.341 51.5946C36.5541 51.2387 36.6667 50.8315 36.6667 50.4167V35.3604C38.3501 35.06 39.8613 34.1434 40.9057 32.7893C41.9501 31.4353 42.4527 29.7408 42.3156 28.0362L42.3042 27.8873C42.2748 27.5255 42.3317 27.1619 42.4704 26.8264C42.609 26.4909 42.8254 26.1932 43.1017 25.9577L43.2162 25.8614C43.9749 25.216 44.5843 24.4135 45.0021 23.5093C45.42 22.6052 45.6365 21.621 45.6365 20.625C45.6365 19.6289 45.42 18.6448 45.0021 17.7406C44.5843 16.8365 43.9749 16.0339 43.2162 15.3885L43.1017 15.2923C42.8254 15.0568 42.609 14.7591 42.4704 14.4236C42.3317 14.0881 42.2748 13.7245 42.3042 13.3627L42.3156 13.2137C42.3952 12.2213 42.2582 11.2234 41.9142 10.2891C41.5702 9.35476 41.0273 8.50631 40.3232 7.8024C39.6191 7.09849 38.7704 6.55591 37.836 6.21219C36.9016 5.86847 35.9037 5.73181 34.9112 5.81165L34.7623 5.82082C34.4005 5.85021 34.0369 5.79324 33.7014 5.65459C33.3659 5.51593 33.0682 5.29957 32.8327 5.02332L32.7364 4.90874ZM22.9167 46.1358V37.0104C24.1776 38.1369 25.8092 38.7595 27.5 38.7595C29.1908 38.7595 30.8224 38.1369 32.0833 37.0104V46.1312L28.7719 43.9244C28.3953 43.6731 27.9527 43.539 27.5 43.539C27.0473 43.539 26.6047 43.6731 26.2281 43.9244L22.9167 46.1358ZM33.7035 19.9535C34.121 19.5213 34.352 18.9424 34.3467 18.3416C34.3415 17.7407 34.1005 17.1659 33.6756 16.741C33.2507 16.3161 32.6759 16.0751 32.0751 16.0699C31.4742 16.0647 30.8953 16.2957 30.4631 16.7131L25.2083 21.9679L24.5369 21.2964C24.1047 20.879 23.5258 20.648 22.9249 20.6532C22.324 20.6585 21.7493 20.8995 21.3244 21.3244C20.8995 21.7493 20.6585 22.324 20.6532 22.9249C20.648 23.5258 20.879 24.1046 21.2964 24.5369L23.5881 26.8285C24.0179 27.2582 24.6007 27.4995 25.2083 27.4995C25.816 27.4995 26.3988 27.2582 26.8285 26.8285L33.7035 19.9535Z" fill="white"/>
<circle cx="28.5" cy="21.5" r="8.5" fill="white"/>
</svg>
