<svg width="26" height="25" viewBox="0 0 26 25" fill="none" xmlns="http://www.w3.org/2000/svg">
<path d="M23.4634 18.75C24.1362 18.75 24.7813 18.4866 25.257 18.0178C25.7328 17.5489 26 16.913 26 16.25V2.5C26 1.83696 25.7328 1.20107 25.257 0.732233C24.7813 0.263392 24.1362 0 23.4634 0H10.0956C10.5395 0.7625 10.7805 1.625 10.7805 2.5H23.4634V16.25H12.0488V18.75M17.122 6.25V8.75H9.51219V25H6.97561V17.5H4.43902V25H1.90244V15H0V8.75C0 8.08696 0.267246 7.45107 0.742949 6.98223C1.21865 6.51339 1.86384 6.25 2.53659 6.25H17.122ZM8.2439 2.5C8.2439 3.16304 7.97666 3.79893 7.50095 4.26777C7.02525 4.73661 6.38006 5 5.70732 5C5.03457 5 4.38938 4.73661 3.91368 4.26777C3.43798 3.79893 3.17073 3.16304 3.17073 2.5C3.17073 1.83696 3.43798 1.20107 3.91368 0.732233C4.38938 0.263392 5.03457 0 5.70732 0C6.38006 0 7.02525 0.263392 7.50095 0.732233C7.97666 1.20107 8.2439 1.83696 8.2439 2.5Z" fill="white"/>
</svg>
