<svg width="25" height="21" viewBox="0 0 25 21" fill="none" xmlns="http://www.w3.org/2000/svg">
<path d="M12.5019 5C12.5019 6.32608 11.9953 7.59785 11.0936 8.53553C10.1918 9.47322 8.96877 10 7.69349 10C6.41822 10 5.19517 9.47322 4.29342 8.53553C3.39166 7.59785 2.88506 6.32608 2.88506 5C2.88506 3.67392 3.39166 2.40215 4.29342 1.46447C5.19517 0.526784 6.41822 0 7.69349 0C8.96877 0 10.1918 0.526784 11.0936 1.46447C11.9953 2.40215 12.5019 3.67392 12.5019 5ZM19.2337 10C20.2539 10 21.2324 9.57857 21.9538 8.82843C22.6752 8.07828 23.0805 7.06087 23.0805 6C23.0805 4.93913 22.6752 3.92172 21.9538 3.17157C21.2324 2.42143 20.2539 2 19.2337 2C18.2135 2 17.2351 2.42143 16.5137 3.17157C15.7923 3.92172 15.387 4.93913 15.387 6C15.387 7.06087 15.7923 8.07828 16.5137 8.82843C17.2351 9.57857 18.2135 10 19.2337 10ZM17.3104 15.188V15C17.3117 13.9179 16.9742 12.8648 16.3487 12H22.6439C23.9441 12 25 13.096 25 14.45C25 14.45 25 19 19.2299 19C18.0797 19 17.1584 18.82 16.4218 18.53C16.8812 17.6546 17.1732 16.6949 17.2815 15.704C17.293 15.58 17.3007 15.474 17.3046 15.386L17.3104 15.188ZM15.387 15C15.387 14.2044 15.083 13.4413 14.542 12.8787C14.0009 12.3161 13.2671 12 12.5019 12H2.88506C2.11989 12 1.38607 12.3161 0.845014 12.8787C0.303961 13.4413 0 14.2044 0 15V15.15C0 15.15 0 21 7.69349 21C15.0254 21 15.3697 15.688 15.387 15.188V15Z" fill="white"/>
</svg>
