<svg width="28" height="30" viewBox="0 0 28 30" fill="none" xmlns="http://www.w3.org/2000/svg">
<path d="M14 3.35938C11.6925 3.35937 9.43691 4.05677 7.51833 5.36337C5.59976 6.66998 4.10441 8.5271 3.22139 10.6999C2.33837 12.8727 2.10733 15.2636 2.55749 17.5702C3.00765 19.8769 4.11879 21.9956 5.75041 23.6586C7.38202 25.3216 9.46082 26.4541 11.7239 26.9129C13.987 27.3718 16.3328 27.1363 18.4646 26.2363C20.5964 25.3363 22.4185 23.8122 23.7005 21.8567C24.9824 19.9012 25.6667 17.6022 25.6667 15.2504C25.6667 13.6888 25.3649 12.1426 24.7786 10.6999C24.1923 9.25722 23.3329 7.94636 22.2496 6.84218C21.1662 5.73799 19.8801 4.86211 18.4646 4.26453C17.0492 3.66695 15.5321 3.35938 14 3.35938ZM14 22.385C13.7692 22.385 13.5437 22.3153 13.3518 22.1846C13.16 22.054 13.0104 21.8682 12.9221 21.651C12.8338 21.4337 12.8107 21.1946 12.8557 20.9639C12.9008 20.7333 13.0119 20.5214 13.175 20.3551C13.3382 20.1888 13.5461 20.0755 13.7724 20.0297C13.9987 19.9838 14.2333 20.0073 14.4464 20.0973C14.6596 20.1873 14.8418 20.3397 14.97 20.5353C15.0982 20.7308 15.1667 20.9607 15.1667 21.1959C15.1667 21.5113 15.0437 21.8137 14.8249 22.0367C14.6061 22.2597 14.3094 22.385 14 22.385ZM15.1667 16.2492V17.6286C15.1667 17.944 15.0437 18.2464 14.8249 18.4694C14.6061 18.6924 14.3094 18.8177 14 18.8177C13.6906 18.8177 13.3938 18.6924 13.175 18.4694C12.9562 18.2464 12.8333 17.944 12.8333 17.6286V15.2504C12.8333 14.935 12.9562 14.6326 13.175 14.4096C13.3938 14.1866 13.6906 14.0613 14 14.0613C14.3461 14.0613 14.6844 13.9567 14.9722 13.7607C15.26 13.5647 15.4843 13.2861 15.6168 12.9602C15.7492 12.6343 15.7839 12.2757 15.7164 11.9297C15.6488 11.5837 15.4822 11.2659 15.2374 11.0164C14.9927 10.767 14.6809 10.5971 14.3414 10.5283C14.0019 10.4594 13.6501 10.4948 13.3303 10.6298C13.0105 10.7648 12.7372 10.9934 12.5449 11.2867C12.3526 11.58 12.25 11.9249 12.25 12.2776C12.25 12.593 12.1271 12.8955 11.9083 13.1185C11.6895 13.3415 11.3927 13.4667 11.0833 13.4667C10.7739 13.4667 10.4772 13.3415 10.2584 13.1185C10.0396 12.8955 9.91665 12.593 9.91665 12.2776C9.9136 11.5051 10.1216 10.7469 10.5173 10.088C10.9131 9.42909 11.4809 8.89546 12.1574 8.54684C12.8338 8.19823 13.5921 8.04839 14.3473 8.11411C15.1026 8.17984 15.8249 8.45852 16.4336 8.91896C17.0423 9.37941 17.5132 10.0034 17.7936 10.7212C18.074 11.4389 18.1529 12.2221 18.0214 12.9829C17.8899 13.7438 17.5532 14.4523 17.049 15.0292C16.5448 15.6061 15.893 16.0285 15.1667 16.2492Z" fill="#640D14"/>
</svg>
