<svg width="662" height="662" viewBox="0 0 662 662" fill="none" xmlns="http://www.w3.org/2000/svg">
<path d="M558.547 518.988C558.547 539.903 442.899 556.853 300.254 556.853C157.596 556.853 41.9483 539.903 41.9483 518.988C41.9483 498.074 157.596 481.114 300.254 481.114C442.899 481.114 558.547 498.074 558.547 518.988Z" fill="#F9DDC5"/>
<path d="M403.89 248.957C506.85 457.423 409.441 517.346 333.558 524.755C257.661 532.154 165.116 508.095 139.204 424.8C113.281 341.505 183.735 291.205 203.988 248.957C210.734 234.856 209.076 206.148 189.64 188.101C170.203 170.053 168.815 127.026 189.64 125.638C210.464 124.241 222.951 152.702 240.31 152.702C257.661 152.702 244.583 117.693 269.462 108.278C295.145 98.5553 295.834 122.853 311.807 129.799C327.77 136.739 334.21 116.459 358.308 107.579C384.69 97.8658 408.289 118.69 399.265 144.374C392.236 164.365 394.586 168.564 401.353 173.526C411.754 181.161 432.687 175.937 439.525 186.712C457.573 215.172 395.957 232.878 403.89 248.957Z" fill="#7E111A"/>
<path d="M307.771 526.007C270.169 526.007 230.898 518.016 199.026 499.154C215.362 500.866 230.307 501.684 244.002 501.673C360.665 501.673 385.153 442.766 384.091 383.858C383.022 324.953 356.413 266.046 370.952 266.046C371.131 266.046 371.314 266.053 371.494 266.072C374.752 266.372 377.844 266.508 380.783 266.508C393.043 266.508 402.63 264.141 409.785 261.374C502.588 459.356 408.271 517.274 333.992 524.711C333.982 524.711 333.974 524.711 333.964 524.711C333.828 524.729 333.691 524.737 333.558 524.755C325.122 525.572 316.497 526.007 307.771 526.007Z" fill="#640D14"/>
<path d="M201.412 241.756C198.546 239.617 198.183 224.487 215.725 238.056C239.578 256.513 362.488 272.458 405.415 256.876C405.415 256.876 411.647 253.927 414.377 255.77C417.105 257.619 413.007 265.964 396.653 270.044C373.227 275.885 247.069 275.803 201.412 241.756V241.756Z" fill="#FFC91D"/>
<path d="M439.526 186.712C432.687 175.937 411.755 181.162 401.343 173.526C394.586 168.564 392.236 164.366 399.265 144.374C408.289 118.691 384.691 97.8665 358.308 107.579C334.211 116.459 327.771 136.738 311.808 129.8C295.835 122.853 295.146 98.5556 269.462 108.279C244.584 117.694 257.662 152.702 240.31 152.702C222.962 152.702 210.464 124.242 189.64 125.638C171.528 126.836 170.23 159.548 182.992 179.92C183.074 180.003 186.511 183.34 189.35 187.801L189.64 188.101C200.469 198.159 205.639 211.492 207.045 223.798C219.425 215.718 232.685 206.267 237.536 209.622C246.553 215.862 238.925 229.748 249.337 233.912C259.746 238.082 263.911 213.088 279.874 214.476C295.834 215.862 289.595 269.319 317.358 265.846C345.119 262.372 332.632 218.646 340.26 216.561C347.896 214.476 343.733 237.385 364.555 241.548C385.38 245.71 373.263 267.378 392.319 266.007C406.549 264.984 404.309 254.78 403.621 247.805C403.302 246.718 403.266 245.62 403.502 244.514L403.855 242.943L404.001 242.627L404.163 242.29L404.292 242.154C411.572 227.77 455.073 211.236 439.526 186.712H439.526Z" fill="#660F0D"/>
<path d="M214.688 284.793C214.688 284.793 227.877 269.908 256.337 283.731C284.79 297.545 303.498 405.572 261.924 442.586C220.35 479.599 163.645 439.902 157.768 413.319C151.883 386.743 174.793 310.803 214.688 284.793Z" fill="#98141F"/>
<path d="M294.086 166.978C293.94 181.416 282.121 192.98 267.693 192.826C253.281 192.679 241.709 180.871 241.853 166.451C241.999 152.02 253.815 140.448 268.246 140.603C282.677 140.757 294.241 152.565 294.086 166.977V166.978Z" fill="#FFB025"/>
<path d="M292.77 166.978C292.626 180.673 281.414 191.646 267.719 191.51C254.023 191.355 243.04 180.164 243.187 166.469C243.341 152.766 254.55 141.791 268.236 141.927C281.931 142.071 292.906 153.283 292.77 166.978V166.978Z" fill="#E79E30"/>
<path d="M287.51 166.924C287.402 177.717 278.568 186.368 267.765 186.25C256.99 186.142 248.318 177.298 248.447 166.515C248.555 155.722 257.388 147.069 268.181 147.169C278.974 147.295 287.617 156.129 287.509 166.924H287.51Z" fill="#FFB025"/>
<path d="M286.684 167.728C286.566 178.079 278.113 186.36 267.765 186.249C257.443 186.141 249.154 177.67 249.254 167.34C249.362 157.01 257.826 148.719 268.174 148.819C278.493 148.938 286.784 157.398 286.684 167.728Z" fill="#D3841C"/>
<path d="M266.277 178.804L266.315 175.991C264.317 175.883 262.405 175.321 261.281 174.668L262.204 171.204C263.438 171.893 265.189 172.536 267.112 172.554C268.809 172.564 269.968 171.929 269.986 170.742C269.986 169.616 269.061 168.901 266.868 168.13C263.703 167.021 261.543 165.525 261.579 162.641C261.608 160.029 263.466 158.008 266.649 157.409L266.677 154.596L269.588 154.614L269.562 157.236C271.547 157.344 272.889 157.781 273.85 158.26L272.953 161.599C272.192 161.262 270.829 160.573 268.69 160.545C266.767 160.538 266.142 161.353 266.122 162.188C266.114 163.167 267.14 163.792 269.66 164.772C273.179 166.07 274.586 167.71 274.557 170.369C274.531 173.009 272.634 175.259 269.215 175.811L269.189 178.83L266.276 178.804H266.277Z" fill="#FFC91D"/>
<path d="M395.784 179.231C395.666 191.527 385.588 201.379 373.299 201.251C361.02 201.125 351.151 191.065 351.287 178.776C351.405 166.487 361.473 156.627 373.772 156.756C386.061 156.892 395.921 166.95 395.784 179.231V179.231Z" fill="#FFB025"/>
<path d="M394.658 179.231C394.54 190.903 384.991 200.253 373.327 200.135C361.655 199.999 352.295 190.458 352.421 178.794C352.549 167.122 362.108 157.772 373.762 157.88C385.426 158.016 394.776 167.557 394.658 179.231Z" fill="#E79E30"/>
<path d="M390.187 179.177C390.097 188.373 382.559 195.754 373.363 195.656C364.185 195.556 356.801 188.029 356.901 178.83C356.992 169.633 364.519 162.271 373.718 162.353C382.914 162.461 390.277 169.989 390.187 179.177Z" fill="#FFB025"/>
<path d="M389.48 179.874C389.38 188.689 382.179 195.736 373.363 195.656C364.565 195.556 357.5 188.345 357.591 179.539C357.681 170.742 364.892 163.677 373.708 163.767C382.506 163.857 389.57 171.076 389.48 179.874Z" fill="#D3841C"/>
<path d="M372.093 189.307L372.121 186.913C370.425 186.82 368.792 186.339 367.841 185.779L368.628 182.83C369.682 183.422 371.168 183.964 372.81 183.982C374.253 183.992 375.24 183.458 375.25 182.442C375.25 181.48 374.469 180.871 372.592 180.21C369.898 179.267 368.067 177.986 368.085 175.539C368.111 173.307 369.7 171.585 372.412 171.075L372.43 168.682L374.914 168.7L374.896 170.921C376.582 171.021 377.726 171.394 378.541 171.801L377.78 174.641C377.127 174.359 375.975 173.77 374.153 173.752C372.51 173.742 371.975 174.441 371.967 175.148C371.957 175.984 372.829 176.508 374.978 177.352C377.971 178.449 379.168 179.856 379.151 182.123C379.133 184.363 377.518 186.278 374.597 186.758L374.58 189.334L372.094 189.306L372.093 189.307Z" fill="#FFC91D"/>
<path d="M161.948 492.832C161.732 514.289 144.155 531.496 122.696 531.277C101.246 531.049 84.0313 513.492 84.2577 492.032C84.4686 470.583 102.054 453.361 123.513 453.587C144.97 453.823 162.185 471.38 161.948 492.832H161.948Z" fill="#FFB025"/>
<path d="M159.989 492.822C159.773 513.201 143.104 529.526 122.732 529.318C102.362 529.084 86.0268 512.43 86.2453 492.069C86.4637 471.681 103.152 455.364 123.503 455.564C143.865 455.79 160.19 472.452 159.989 492.822Z" fill="#E79E30"/>
<path d="M152.163 492.739C152.009 508.795 138.859 521.673 122.806 521.49C106.769 521.328 93.8802 508.178 94.063 492.132C94.2274 476.08 107.36 463.21 123.412 463.364C139.476 463.544 152.335 476.686 152.163 492.739L152.163 492.739Z" fill="#FFB025"/>
<path d="M150.948 493.948C150.768 509.337 138.196 521.654 122.806 521.49C107.44 521.328 95.1072 508.73 95.2613 493.367C95.4234 478.003 108.021 465.678 123.413 465.822C138.759 465.984 151.094 478.584 150.948 493.948Z" fill="#D3841C"/>
<path d="M120.593 510.417L120.636 506.226C117.672 506.072 114.823 505.239 113.155 504.259L114.526 499.107C116.366 500.133 118.968 501.092 121.827 501.12C124.357 501.139 126.071 500.195 126.107 498.426C126.107 496.75 124.727 495.688 121.462 494.536C116.757 492.894 113.546 490.664 113.59 486.381C113.636 482.492 116.41 479.471 121.135 478.592L121.174 474.401L125.509 474.437L125.472 478.33C128.429 478.492 130.414 479.145 131.848 479.862L130.514 484.824C129.38 484.325 127.367 483.299 124.174 483.263C121.308 483.235 120.385 484.461 120.367 485.693C120.349 487.154 121.863 488.079 125.617 489.55C130.851 491.473 132.936 493.92 132.908 497.874C132.871 501.792 130.051 505.14 124.956 505.965L124.919 510.464L120.592 510.417L120.593 510.417Z" fill="#FFC91D"/>
<path d="M489.409 491.605C489.201 513.075 471.613 530.27 450.156 530.054C428.715 529.827 411.492 512.268 411.726 490.809C411.937 469.359 429.512 452.137 450.982 452.363C472.439 452.597 489.646 470.157 489.409 491.606V491.605Z" fill="#FFB025"/>
<path d="M487.45 491.598C487.242 511.978 470.562 528.3 450.193 528.095C429.831 527.858 413.488 511.207 413.703 490.845C413.932 470.457 430.61 454.14 450.972 454.33C471.333 454.567 487.659 471.229 487.45 491.598V491.598Z" fill="#E79E30"/>
<path d="M479.632 491.516C479.467 507.568 466.328 520.449 450.264 520.266C434.237 520.104 421.342 506.951 421.522 490.909C421.686 474.856 434.829 461.986 450.881 462.14C466.945 462.32 479.794 475.463 479.632 491.516H479.632Z" fill="#FFB025"/>
<path d="M478.408 492.722C478.236 508.113 465.657 520.431 450.265 520.266C434.909 520.105 422.576 507.507 422.73 492.143C422.884 476.779 435.482 464.452 450.871 464.598C466.217 464.76 478.553 477.358 478.408 492.722Z" fill="#D3841C"/>
<path d="M448.051 509.193L448.097 505.002C445.141 504.848 442.292 504.013 440.613 503.033L441.994 497.883C443.835 498.907 446.437 499.868 449.293 499.896C451.815 499.914 453.537 498.971 453.566 497.202C453.566 495.534 452.195 494.464 448.923 493.313C444.215 491.67 441.014 489.43 441.058 485.15C441.094 481.268 443.871 478.247 448.596 477.368L448.632 473.177L452.977 473.213L452.941 477.106C455.898 477.278 457.883 477.921 459.317 478.638L457.983 483.597C456.841 483.098 454.826 482.075 451.635 482.039C448.777 482.011 447.843 483.234 447.825 484.469C447.807 485.929 449.332 486.855 453.077 488.322C458.32 490.245 460.405 492.696 460.368 496.65C460.332 500.568 457.512 503.915 452.424 504.74L452.386 509.237L448.051 509.193H448.051Z" fill="#FFC91D"/>
<path d="M299.58 172.59V181.48H299.709C301.123 183.838 314.32 185.707 330.39 185.707C346.464 185.707 359.658 183.838 361.074 181.48H361.21V172.59H299.58Z" fill="#F4A517"/>
<path d="M310.792 172.873V184.635C313.91 185.026 317.538 185.324 321.513 185.496V172.873H310.792Z" fill="#FFC91D"/>
<path d="M323.526 174.987V185.579C324.395 185.607 325.277 185.643 326.174 185.651V174.987H323.526Z" fill="#FFC91D"/>
<path d="M361.21 172.59C361.21 174.804 347.415 176.601 330.39 176.601C313.376 176.601 299.58 174.804 299.58 172.59C299.58 170.379 313.376 168.592 330.39 168.592C347.415 168.592 361.21 170.379 361.21 172.59Z" fill="#FFC91D"/>
<path d="M353.737 172.837C353.737 174.523 343.278 175.866 330.39 175.866C317.502 175.866 307.054 174.523 307.054 172.837C307.054 171.158 317.502 169.806 330.39 169.806C343.278 169.806 353.737 171.158 353.737 172.837Z" fill="#F4A517"/>
<path d="M351.397 173.135C351.397 174.65 341.99 175.865 330.39 175.865C318.79 175.865 309.386 174.65 309.386 173.135C309.386 171.639 318.79 170.405 330.39 170.405C341.99 170.405 351.397 171.639 351.397 173.135Z" fill="#FFC91D"/>
<path d="M309.077 161.019V169.898H309.214C310.628 172.264 323.816 174.115 339.887 174.115C355.968 174.115 369.154 172.264 370.579 169.898H370.704V161.019H309.077H309.077Z" fill="#F4A517"/>
<path d="M320.286 161.291V173.063C323.407 173.444 327.035 173.742 331.007 173.924V161.291H320.286Z" fill="#FFC91D"/>
<path d="M333.02 163.412V174.007C333.892 174.033 334.771 174.061 335.668 174.069V163.412H333.02Z" fill="#FFC91D"/>
<path d="M370.705 161.019C370.705 163.222 356.901 165.019 339.887 165.019C322.873 165.019 309.077 163.222 309.077 161.019C309.077 158.797 322.873 157.01 339.887 157.01C356.902 157.01 370.705 158.797 370.705 161.019Z" fill="#FFC91D"/>
<path d="M363.231 161.263C363.231 162.932 352.775 164.292 339.887 164.292C326.999 164.292 316.551 162.932 316.551 161.263C316.551 159.587 326.999 158.224 339.887 158.224C352.775 158.224 363.231 159.587 363.231 161.263Z" fill="#F4A517"/>
<path d="M360.902 161.563C360.902 163.068 351.495 164.291 339.887 164.291C328.288 164.291 318.883 163.067 318.883 161.563C318.883 160.057 328.288 158.823 339.887 158.823C351.495 158.823 360.902 160.057 360.902 161.563Z" fill="#FFC91D"/>
<path d="M300.19 147.923V156.802H300.326C301.74 159.168 314.926 161.019 331 161.019C347.078 161.019 360.275 159.167 361.691 156.802H361.827V147.923H300.19Z" fill="#F4A517"/>
<path d="M311.399 148.195V159.957C314.52 160.348 318.147 160.646 322.119 160.818V148.195H311.399Z" fill="#FFC91D"/>
<path d="M324.133 150.316V160.911C325.004 160.936 325.883 160.965 326.781 160.973V150.316H324.133V150.316Z" fill="#FFC91D"/>
<path d="M361.827 147.922C361.827 150.126 348.022 151.923 331 151.923C313.985 151.923 300.19 150.126 300.19 147.922C300.19 145.701 313.985 143.914 331 143.914C348.022 143.914 361.827 145.701 361.827 147.922Z" fill="#FFC91D"/>
<path d="M354.354 148.159C354.354 149.835 343.895 151.195 331 151.195C318.112 151.195 307.663 149.835 307.663 148.159C307.663 146.48 318.112 145.128 331 145.128C343.895 145.128 354.354 146.48 354.354 148.159Z" fill="#F4A517"/>
<path d="M352.014 148.465C352.014 149.971 342.607 151.195 331 151.195C319.4 151.195 309.992 149.971 309.992 148.465C309.992 146.95 319.399 145.727 331 145.727C342.607 145.727 352.014 146.951 352.014 148.465Z" fill="#FFC91D"/>
<path d="M252.674 175.158V184.036H252.81C254.224 186.404 267.41 188.262 283.491 188.262C299.562 188.262 312.759 186.404 314.175 184.036H314.312V175.158H252.674Z" fill="#F4A517"/>
<path d="M263.883 175.431V187.204C267.004 187.584 270.632 187.882 274.604 188.065V175.432H263.883V175.431Z" fill="#FFC91D"/>
<path d="M276.617 177.552V188.147C277.488 188.173 278.367 188.209 279.265 188.219V177.552H276.617Z" fill="#FFC91D"/>
<path d="M314.312 175.158C314.312 177.372 300.506 179.167 283.491 179.167C266.469 179.167 252.674 177.372 252.674 175.158C252.674 172.945 266.469 171.148 283.491 171.148C300.506 171.148 314.312 172.945 314.312 175.158Z" fill="#FFC91D"/>
<path d="M306.838 175.403C306.838 177.071 296.379 178.441 283.491 178.441C270.595 178.441 260.147 177.071 260.147 175.403C260.147 173.724 270.596 172.374 283.491 172.374C296.379 172.374 306.838 173.724 306.838 175.403Z" fill="#F4A517"/>
<path d="M304.498 175.701C304.498 177.218 295.091 178.442 283.491 178.442C271.883 178.442 262.477 177.218 262.477 175.701C262.477 174.197 271.883 172.974 283.491 172.974C295.091 172.974 304.498 174.197 304.498 175.701Z" fill="#FFC91D"/>
<path d="M343.679 187.175C343.533 201.243 332.015 212.517 317.958 212.37C303.899 212.216 292.616 200.716 292.77 186.658C292.906 172.6 304.424 161.317 318.492 161.463C332.55 161.617 343.831 173.127 343.679 187.175Z" fill="#FFB025"/>
<path d="M342.391 187.168C342.255 200.526 331.326 211.218 317.975 211.082C304.632 210.928 293.922 200.017 294.068 186.677C294.213 173.318 305.141 162.623 318.482 162.752C331.825 162.906 342.525 173.825 342.391 187.168Z" fill="#E79E30"/>
<path d="M337.265 187.111C337.157 197.634 328.549 206.066 318.029 205.958C307.516 205.85 299.074 197.233 299.192 186.723C299.3 176.2 307.907 167.768 318.427 167.865C328.948 167.983 337.375 176.601 337.265 187.111Z" fill="#FFB025"/>
<path d="M336.468 187.9C336.349 197.996 328.104 206.059 318.029 205.958C307.961 205.85 299.881 197.595 299.981 187.519C300.079 177.462 308.342 169.382 318.42 169.479C328.477 169.59 336.558 177.843 336.468 187.9V187.9Z" fill="#D3841C"/>
<path d="M316.579 198.703L316.605 195.955C314.664 195.854 312.795 195.302 311.7 194.667L312.604 191.283C313.813 191.964 315.517 192.589 317.384 192.607C319.044 192.617 320.171 192 320.189 190.838C320.189 189.751 319.289 189.044 317.15 188.291C314.057 187.221 311.962 185.751 311.987 182.948C312.015 180.401 313.838 178.423 316.931 177.85L316.959 175.104L319.798 175.13L319.78 177.67C321.711 177.789 323.017 178.205 323.952 178.678L323.081 181.923C322.338 181.607 321.014 180.925 318.919 180.907C317.049 180.889 316.443 181.696 316.425 182.504C316.415 183.458 317.412 184.064 319.87 185.026C323.3 186.286 324.667 187.892 324.642 190.476C324.624 193.052 322.772 195.237 319.435 195.782L319.407 198.729L316.579 198.703Z" fill="#FFC91D"/>
<path d="M267.312 185.905C267.202 196.716 258.343 205.388 247.532 205.277C236.719 205.161 228.049 196.309 228.157 185.497C228.268 174.686 237.127 166.017 247.938 166.135C258.759 166.251 267.428 175.095 267.312 185.905Z" fill="#FFB025"/>
<path d="M266.323 185.898C266.215 196.163 257.808 204.39 247.55 204.29C237.281 204.171 229.047 195.783 229.165 185.515C229.273 175.249 237.68 167.022 247.938 167.122C258.196 167.241 266.423 175.64 266.323 185.898V185.898Z" fill="#E79E30"/>
<path d="M262.379 185.862C262.297 193.942 255.674 200.436 247.586 200.343C239.503 200.264 233.011 193.634 233.101 185.553C233.183 177.462 239.804 170.976 247.894 171.058C255.982 171.148 262.458 177.771 262.379 185.861V185.862Z" fill="#FFB025"/>
<path d="M261.762 186.468C261.67 194.222 255.34 200.426 247.586 200.343C239.84 200.264 233.626 193.913 233.708 186.167C233.79 178.431 240.131 172.22 247.884 172.292C255.62 172.374 261.834 178.722 261.762 186.468Z" fill="#D3841C"/>
<path d="M246.47 194.767L246.496 192.654C245 192.572 243.568 192.155 242.725 191.664L243.414 189.063C244.339 189.579 245.653 190.068 247.088 190.078C248.366 190.086 249.227 189.615 249.245 188.718C249.245 187.882 248.556 187.34 246.905 186.759C244.537 185.934 242.923 184.808 242.941 182.651C242.961 180.692 244.365 179.178 246.743 178.733L246.761 176.62L248.946 176.638L248.929 178.597C250.414 178.679 251.422 179.005 252.139 179.368L251.469 181.87C250.895 181.618 249.88 181.098 248.276 181.08C246.833 181.073 246.36 181.69 246.353 182.307C246.342 183.039 247.114 183.512 249.001 184.248C251.641 185.217 252.693 186.451 252.675 188.446C252.657 190.423 251.233 192.102 248.667 192.519L248.646 194.786L246.471 194.768L246.47 194.767Z" fill="#FFC91D"/>
<path d="M225.273 197.978C225.273 197.978 232.703 179.92 249.761 183.82C266.822 187.72 269.85 185.435 281.26 179.267C292.68 173.099 291.908 165.199 300.696 172.601C309.494 180.003 301.822 198.976 323.706 193.425C345.582 187.875 350.798 175.087 359.532 183.792C368.257 192.5 373.816 202.884 383.991 203.246C394.169 203.609 404.643 203.246 404.643 203.246C404.643 203.246 408.98 229.984 394.64 226.747C380.291 223.507 380.291 224.425 377.98 223.037C375.666 221.649 348.366 204.236 335.406 210.856C303.781 227.019 296.171 199.038 288.019 204.562C279.874 210.085 266.849 209.313 261.787 210.856C256.735 212.399 227.587 202.539 225.273 197.978V197.978Z" fill="#660F0D"/>
<path d="M416.2 512.656H322.837C321.376 512.656 320.196 511.468 320.196 510.008V498.917C320.196 497.457 321.376 496.269 322.837 496.269H416.2C417.66 496.269 418.838 497.457 418.838 498.917V510.008C418.838 511.468 417.66 512.656 416.2 512.656Z" fill="#F4A517"/>
<path d="M329.004 512.656H343.16V496.272H329.004V512.656Z" fill="#FFC91D"/>
<path d="M351.441 512.656H355.85V496.272H351.441V512.656Z" fill="#FFC91D"/>
<path d="M431.689 496.269H339.134C337.447 496.269 336.087 494.909 336.087 493.221V482.937C336.087 481.25 337.447 479.89 339.134 479.89H431.689C433.368 479.89 434.729 481.25 434.729 482.937V493.221C434.729 494.909 433.368 496.269 431.689 496.269Z" fill="#FFC91D"/>
<path d="M396.182 496.269H410.338V479.887H396.182V496.269Z" fill="#FFD150"/>
<path d="M418.622 496.269H423.028V479.887H418.622V496.269Z" fill="#FFD150"/>
<path d="M433.857 528.802H343.705C341.366 528.802 339.46 526.897 339.46 524.547V516.675C339.46 514.328 341.365 512.422 343.705 512.422H433.857C436.207 512.422 438.112 514.327 438.112 516.675V524.547C438.112 526.897 436.207 528.802 433.857 528.802Z" fill="#E59515"/>
<path d="M348.276 528.802H362.427V512.422H348.276V528.802Z" fill="#FFC91D"/>
<path d="M370.715 528.802H375.111V512.422H370.715V528.802Z" fill="#FFC91D"/>
<path d="M232.502 511.942H139.15C137.689 511.942 136.499 510.762 136.499 509.301V498.21C136.499 496.75 137.689 495.562 139.15 495.562H232.502C233.962 495.562 235.15 496.75 235.15 498.21V509.301C235.15 510.762 233.962 511.942 232.502 511.942Z" fill="#F4A517"/>
<path d="M145.315 511.942H159.473V495.562H145.315V511.942Z" fill="#FFC91D"/>
<path d="M167.754 511.942H172.16V495.562H167.754V511.942Z" fill="#FFC91D"/>
<path d="M247.992 495.562H155.447C153.76 495.562 152.4 494.2 152.4 492.513V482.23C152.4 480.543 153.76 479.181 155.447 479.181H247.992C249.681 479.181 251.041 480.543 251.041 482.23V492.513C251.041 494.2 249.681 495.562 247.992 495.562Z" fill="#FFC91D"/>
<path d="M212.495 495.562H226.646V479.183H212.495V495.562Z" fill="#FFD150"/>
<path d="M234.924 495.562H239.336V479.183H234.924V495.562Z" fill="#FFD150"/>
<path d="M250.17 528.095H160.018C157.668 528.095 155.773 526.19 155.773 523.84V515.96C155.773 513.61 157.668 511.715 160.018 511.715H250.17C252.509 511.715 254.414 513.609 254.414 515.96V523.84C254.414 526.19 252.509 528.095 250.17 528.095Z" fill="#E59515"/>
<path d="M164.579 528.095H178.737V511.713H164.579V528.095Z" fill="#FFC91D"/>
<path d="M187.018 528.095H191.429V511.713H187.018V528.095Z" fill="#FFC91D"/>
<path d="M562.31 369.176C562.31 369.176 558.618 372.613 552.615 374.862L561.032 382.979C561.032 382.979 564.169 376.477 568.442 375.425L562.31 369.175V369.176Z" fill="#EFAC8D"/>
<path d="M560.459 368.469C560.459 368.469 559.099 375.606 566.336 377.464C570.419 378.519 573.203 371.415 580.178 372.007C587.161 372.603 592.295 372.007 592.231 370.155C592.169 368.315 580.641 364.232 577.05 365.121C573.458 366.001 560.459 368.469 560.459 368.469Z" fill="#F47C62"/>
<path d="M563.38 364.831C563.38 364.831 557.205 368.623 562.737 371.795C568.26 374.981 571.353 367.744 578.546 368.649C585.737 369.556 591.072 372.233 592.231 370.155C593.393 368.078 588.614 362.065 581.901 361.204C575.191 360.342 570.337 360.378 563.38 364.831V364.831Z" fill="#FF6767"/>
<path d="M470.127 353.475C470.127 353.475 461.883 414.987 476.141 431.33C490.453 447.756 527.402 416.275 564.969 381.364C564.969 381.364 561.323 373.847 556.179 371.425C556.179 371.425 520.618 379.832 502.014 408.992C502.014 408.992 506.632 366.438 486.306 353.313L470.127 353.475Z" fill="#B79455"/>
<path d="M590.2 385.257C590.2 385.257 586.791 387.995 581.222 390.273L587.215 398.798C587.215 398.798 591.133 392.738 595.506 392.214L590.2 385.257H590.2Z" fill="#EFAC8D"/>
<path d="M588.367 384.493C588.367 384.493 586.217 391.242 593.167 393.99C597.085 395.541 600.73 388.83 607.577 390.291C614.434 391.741 619.604 391.787 619.768 389.954C619.94 388.113 609.001 382.634 605.327 383.061C601.656 383.488 588.367 384.493 588.367 384.493Z" fill="#F47C62"/>
<path d="M591.796 381.074C591.796 381.074 585.202 384.077 590.3 387.913C595.388 391.759 599.352 384.967 606.381 386.754C613.4 388.548 618.362 391.867 619.768 389.954C621.182 388.041 617.192 381.465 610.634 379.779C604.085 378.092 599.26 377.521 591.796 381.074Z" fill="#FF6767"/>
<path d="M474.871 353.475C474.871 353.475 490.852 418.651 498.333 437.344C513.018 473.992 548.461 428.037 590.326 398.407C590.326 398.407 590.326 391.687 582.927 387.389C582.927 387.389 547.001 391.859 524.698 418.296C524.698 418.296 532.2 346.683 511.838 350.292C491.304 353.938 474.871 353.475 474.871 353.475Z" fill="#C6A45D"/>
<path d="M518.648 434.714L516.972 434.313C504.91 428.456 499.704 356.406 499.495 353.339L500.374 353.285C500.428 354.03 505.753 427.875 517.361 433.505C518.433 434.025 519.492 433.907 520.618 433.135C524.364 430.595 529.035 426.885 533.987 422.967C548.816 411.213 573.358 392.893 587.997 391.587L588.079 392.466C573.702 393.754 549.279 411.984 534.54 423.666C529.578 427.592 524.891 431.312 521.117 433.87C520.291 434.431 519.466 434.714 518.649 434.714H518.648Z" fill="#ECD69D"/>
<path d="M489.417 283.251C489.417 283.251 490.253 294.642 485.944 295.031C481.627 295.421 473.475 294.607 472.395 287.058C471.305 279.513 477.174 263.488 484.203 258.889C491.24 254.299 494.716 261.303 494.716 261.303C494.716 261.303 477.347 267.252 489.417 283.251L489.417 283.251Z" fill="#242236"/>
<path d="M549.587 295.159C558.328 292.845 579.17 277.065 579.17 277.065L571.416 274.934L545.959 286.243C545.959 286.243 540.833 297.47 549.587 295.159Z" fill="#EFAC8D"/>
<path d="M434.528 278.533C427.663 272.637 415.781 249.355 415.781 249.355L421.786 249.875L441.675 272.095C441.675 272.095 441.395 284.428 434.528 278.533Z" fill="#EFAC8D"/>
<path d="M421.632 247.744L422.54 245.875C423.074 244.705 423.2 243.407 423.308 242.137L423.652 239.388C422.539 238.383 421.596 241.175 421.169 241.702L419.554 242.301L418.737 241.422C418.102 240.288 417.66 239.062 417.15 237.875L416.271 236.07L415.59 234.565L414.538 234.548L414.657 235.471L415.256 237.623L415.482 238.62L414.004 237.196L412.525 235.327L412.217 235.272L412.081 235.725C412.264 236.733 412.816 237.648 412.978 238.656L412.87 239.119L411.284 238.093L410.593 237.72L410.312 238.146L410.438 238.673L411.037 240.187L411.302 241.285L411.101 241.321L410.477 240.931L409.785 240.74L409.577 241.584C409.832 242.674 410.485 243.679 411.055 244.633C411.654 245.656 412.307 246.653 413.007 247.615C413.922 248.903 414.93 250.127 415.989 251.297C416.925 252.315 418.066 253.41 419.501 253.593L420.724 253.564L422.293 253.212L423.436 252.132L423.48 251.924L423.354 251.669L422.102 249.929C421.768 249.319 421.539 248.576 421.632 247.743L421.632 247.744Z" fill="#EFAC8D"/>
<path d="M572.769 273.753L572.931 271.74C572.985 270.452 573.448 269.236 573.921 268.048C574.183 267.395 573.965 265.691 574.844 265.447C576.286 265.038 575.888 267.966 576.024 268.619L577.204 269.871L578.327 269.455C579.407 268.73 580.351 267.84 581.338 267.007L582.935 265.773L584.223 264.74L585.167 265.192L584.642 265.964L583.143 267.622L582.501 268.411C582.655 269.283 584.198 267.995 584.449 267.804C585.095 267.313 585.773 266.835 586.619 266.789L586.918 266.879L586.835 267.352C586.218 268.167 585.321 268.738 584.722 269.563L584.604 270.026L586.491 269.828L587.273 269.8L587.327 270.308L586.982 270.725L585.774 271.805L585.041 272.666L585.196 272.792L585.939 272.72L586.646 272.864L586.455 273.711C585.73 274.572 584.697 275.171 583.761 275.778C582.764 276.42 581.73 277.019 580.678 277.572C579.362 278.264 578.002 278.852 576.614 279.415C575.562 279.85 574.439 280.647 573.331 280.894C572.516 281.074 571.654 280.693 571.037 280.112L569.487 278.218L569.222 276.104L569.803 275.742L571.418 274.935L572.469 274.317L572.77 273.754L572.769 273.753Z" fill="#EFAC8D"/>
<path d="M431.109 277.463C432.296 271.124 440.251 268.213 440.251 268.213C457.957 285.454 475.234 291.094 475.234 291.094L475.241 291.112C487.487 294.732 501.953 294.333 515.728 292.719C515.728 292.719 533.642 291.266 555.182 281.553C555.182 281.553 561.622 285.435 560.814 291.847C560.814 291.847 541.949 305.733 518.34 313.777C515.43 318.667 513.234 324.39 512.057 328.506C505.915 349.929 518.533 347.636 516.428 352.531C512.646 361.321 488.765 365.121 475.216 359.851C470.418 357.984 468.531 355.398 469.665 352.94C477.71 335.463 463.606 327.835 467.272 317.379C467.879 315.664 468.251 313.823 468.478 311.937C447.273 296.845 431.109 277.463 431.109 277.463H431.109Z" fill="#FF8181"/>
<path d="M488.474 308.065C479.966 308.019 474.907 299.049 479.352 292.156L480.012 292.303C478.244 296.817 477.853 301.851 482.352 304.9C487.486 308.364 494.379 305.934 498.695 302.985C502.397 300.455 505.063 297.208 507.331 293.527L508.601 293.426C504.655 300.674 496.291 308.109 488.473 308.065H488.474Z" fill="#FDFEFD"/>
<path d="M499.259 276.376C499.259 276.376 485.99 279.931 486.923 281.201C487.867 282.469 486.733 285.328 486.97 287.976C487.206 290.832 485.854 294.033 483.931 297.136C482.578 299.322 484.602 301.363 487.114 301.643C497.917 302.867 502.588 294.869 502.588 294.869C498.017 289.807 499.259 276.376 499.259 276.376V276.376Z" fill="#EFAC8D"/>
<path d="M486.97 287.976C486.733 285.328 487.867 282.469 486.923 281.201C485.99 279.931 499.259 276.375 499.259 276.375C499.259 276.375 497.572 279.26 497.59 283.466C493.019 287.731 490.106 290.168 486.381 292.302C486.744 291.094 487.052 289.009 486.97 287.975V287.976Z" fill="#E29B7C"/>
<path d="M487.576 259.125C482.987 262.997 473.511 278.952 481.246 287.187C484.555 290.706 494.777 286.57 500.464 278.77C502.796 275.569 503.395 268.149 500.647 261.511C499.403 258.498 492.873 254.572 487.576 259.125Z" fill="#EFAC8D"/>
<path d="M480.902 267.334C481.699 269.02 481.483 265.01 485.383 263.678L486.888 263.377L488.176 263.434C489.073 263.678 489.482 264.504 489.572 265.401C489.762 267.353 490.698 268.856 491.886 270.345C493.192 271.967 494.297 273.61 494.753 275.695L495.187 277.456L495.722 279.667L495.549 281.899C495.485 283.025 495.74 283.768 496.547 284.485L497.598 285.217C498.38 285.644 499.249 285.888 500.131 285.935C502.18 286.025 503.995 284.937 505.108 283.215C507.005 280.258 506.987 276.276 506.643 272.885C506.396 270.481 505.915 268.103 505.319 265.773C504.764 263.606 503.568 261.727 501.899 260.249C499.712 258.308 496.855 257.156 494.017 256.811C492.567 256.639 491.086 256.657 489.646 256.922C479.26 258.824 480.275 266 480.903 267.334H480.902Z" fill="#242236"/>
<path d="M495.548 281.898C495.548 281.898 493.988 292.166 497.734 292.927C501.49 293.688 508.691 293.724 510.195 286.968C511.702 280.211 507.719 265.092 501.899 260.248C496.076 255.414 492.51 261.446 492.51 261.446C492.51 261.446 507.303 268.493 495.548 281.898V281.898Z" fill="#242236"/>
<path d="M477.681 307.656C477.681 307.656 472.765 290.323 467.932 307.276C467.932 307.276 456.35 330.694 477.103 333.232C494.025 335.301 480.802 311.693 480.802 311.693L477.681 307.656Z" fill="#FF8181"/>
<path d="M466.299 325.424C466.79 326.63 468.187 328.434 469.529 329.35C473.673 332.172 478.535 329.851 482.208 327.383L482.951 328.643C478.951 331.319 473.781 333.576 469.21 330.874C467.297 329.751 465.729 327.871 464.893 325.814C464.541 324.943 465.955 324.57 466.3 325.424H466.299Z" fill="#FF7878"/>
<path d="M487.332 327.265C492.718 332.625 499.94 332.381 504.917 326.576L505.943 327.601C500.464 333.995 492.283 334.247 486.298 328.298L487.332 327.264V327.265Z" fill="#FF7878"/>
<path d="M515.021 309.859C515.039 311.793 516.764 312.952 518.476 313.297L518.206 314.276C516.036 313.842 514.023 312.237 514.005 309.859H515.021Z" fill="#FF7878"/>
<path d="M470.598 306.106C470.58 308.482 468.567 310.086 466.4 310.512L466.127 309.533C467.842 309.199 469.564 308.037 469.582 306.106H470.598Z" fill="#FF7878"/>
<path d="M427.736 256.567C429.15 253.255 422.938 255.541 422.013 256.06C421.123 256.549 419.845 257.266 419.454 258.264C418.956 259.505 420.262 260.775 421.424 260.032L421.887 260.775C420.588 261.59 419.056 260.983 418.575 259.533C418.022 257.865 419.58 256.559 420.843 255.741C422.439 254.708 424.786 253.582 426.756 253.872C428.396 254.108 429.142 255.468 428.496 256.983L427.735 256.566L427.736 256.567Z" fill="#FEC44F"/>
<path d="M426.738 254.055C428.152 250.744 421.941 253.029 421.015 253.546C420.125 254.037 418.856 254.755 418.457 255.752C417.969 256.994 419.264 258.264 420.426 257.518L420.887 258.264C419.591 259.079 418.067 258.472 417.586 257.02C417.033 255.351 418.583 254.045 419.845 253.23C421.442 252.196 423.789 251.07 425.758 251.361C427.399 251.597 428.144 252.957 427.499 254.471L426.738 254.055Z" fill="#FEC44F"/>
<path d="M507.277 268.54C507.277 268.54 509.144 276.538 513.987 272.756C518.821 268.966 518.741 273.599 518.25 276.376C517.435 281.001 521.008 279.605 522.214 281.679C527.865 291.377 504.102 307.186 496.111 291.567C492.646 284.793 507.277 268.54 507.277 268.54H507.277Z" fill="#242236"/>
<path d="M494.415 277.937C494.415 277.937 498.225 274.435 500.32 275.44C502.416 276.456 499.467 282.433 495.14 281.6C490.815 280.783 493.255 278.888 494.415 277.937Z" fill="#EFAC8D"/>
<path d="M497.863 281.582C497.917 282.461 497.253 283.222 496.384 283.268C495.523 283.322 494.77 282.651 494.716 281.762C494.659 280.875 495.322 280.121 496.194 280.068C497.055 280.011 497.809 280.693 497.863 281.582V281.582Z" fill="#FEC44F"/>
<path d="M490.317 275.859L490.163 275.949L489.618 276.175L488.194 275.304L487.595 275.612C488.204 276.965 489.589 277.183 490.788 276.33L490.317 275.859Z" fill="#1E100C"/>
<path d="M482.979 274.417L482.406 274.916L480.874 274.345L480.285 274.651C480.712 275.378 481.383 275.985 482.309 275.687L483.55 274.751L482.979 274.417V274.417Z" fill="#1E100C"/>
<path d="M481.383 270.733C482.445 270.344 483.396 270.761 483.949 271.74L484.63 271.296C483.902 270.007 482.542 269.437 481.118 269.964L481.383 270.732L481.383 270.733Z" fill="#242236"/>
<path d="M488.222 272.476C489.137 271.812 490.17 271.966 490.96 272.756L491.494 272.149C490.453 271.098 488.993 270.925 487.759 271.805L488.221 272.476H488.222Z" fill="#242236"/>
<path d="M485.391 273.455L485.591 275.705C485.327 276.756 484.167 277.273 483.55 278.153C482.715 279.376 483.622 280.047 485.075 280.394L485.229 279.95C481.971 279.168 485.653 277.355 486.09 275.995C486.363 275.142 486.235 274.17 485.944 273.327L485.391 273.455Z" fill="#242236"/>
<path d="M487.841 281.644C487.841 281.644 488.175 284.42 485.862 284.538C483.55 284.657 483.188 282.171 483.188 282.171L487.841 281.644Z" fill="#FAFFFF"/>
<path d="M492.176 280.746C491.932 281.582 491.06 282.063 490.224 281.816C489.381 281.582 488.901 280.7 489.147 279.867C489.391 279.031 490.27 278.551 491.106 278.787C491.939 279.031 492.42 279.913 492.176 280.746Z" fill="#FF8181"/>
<path d="M479.324 277.782L481.581 277.926L481.427 280.183L479.177 280.029L479.324 277.782Z" fill="#FF8181"/>
</svg>
