<svg width="35" height="36" viewBox="0 0 35 36" fill="none" xmlns="http://www.w3.org/2000/svg">
<path d="M29.925 5.59259C28.3206 3.97196 26.4095 2.68702 24.3033 1.81269C22.1971 0.938363 19.9379 0.49216 17.6575 0.500104C8.10253 0.500104 0.315049 8.28758 0.315049 17.8426C0.315049 20.905 1.12005 23.88 2.62504 26.505L0.175049 35.5L9.36252 33.085C11.9 34.4675 14.7525 35.2025 17.6575 35.2025C27.2125 35.2025 35 27.415 35 17.8601C35 13.2226 33.1975 8.86508 29.925 5.59259ZM17.6575 32.2625C15.0675 32.2625 12.53 31.5625 10.3075 30.25L9.78252 29.935L4.32254 31.37L5.77503 26.05L5.42503 25.5075C3.98609 23.2097 3.22204 20.5537 3.22004 17.8426C3.22004 9.89758 9.69502 3.4226 17.64 3.4226C21.49 3.4226 25.1125 4.92759 27.825 7.65758C29.1681 8.99452 30.2324 10.5847 30.9564 12.3361C31.6804 14.0874 32.0495 15.965 32.0425 17.8601C32.0775 25.805 25.6025 32.2625 17.6575 32.2625ZM25.5675 21.4825C25.13 21.2725 22.995 20.2225 22.61 20.065C22.2075 19.925 21.9275 19.855 21.63 20.275C21.3325 20.7125 20.51 21.6925 20.265 21.9725C20.02 22.27 19.7575 22.305 19.32 22.0775C18.8825 21.8675 17.4825 21.395 15.8375 19.925C14.5425 18.7701 13.685 17.3526 13.4225 16.9151C13.1775 16.4776 13.3875 16.2501 13.615 16.0226C13.8075 15.8301 14.0525 15.5151 14.2625 15.2701C14.4725 15.0251 14.56 14.8326 14.7 14.5526C14.84 14.2551 14.77 14.0101 14.665 13.8001C14.56 13.5901 13.685 11.4551 13.335 10.5801C12.985 9.74008 12.6175 9.84508 12.355 9.82758H11.515C11.2175 9.82758 10.7625 9.93258 10.36 10.3701C9.97502 10.8076 8.85502 11.8576 8.85502 13.9926C8.85502 16.1276 10.4125 18.1926 10.6225 18.4726C10.8325 18.7701 13.685 23.145 18.025 25.0175C19.0575 25.4725 19.8625 25.735 20.4925 25.9275C21.525 26.26 22.47 26.2075 23.2225 26.1025C24.0625 25.98 25.795 25.0525 26.145 24.0375C26.5125 23.0225 26.5125 22.165 26.39 21.9725C26.2675 21.78 26.005 21.6925 25.5675 21.4825Z" fill="#2E2E2E"/>
</svg>
